<?xml version="1.0" standalone="no"?>
<!DOCTYPE svg PUBLIC "-//W3C//DTD SVG 20010904//EN"
 "http://www.w3.org/TR/2001/REC-SVG-20010904/DTD/svg10.dtd">
<svg version="1.0" xmlns="http://www.w3.org/2000/svg"
 width="595.000000pt" height="595.000000pt" viewBox="0 0 595.000000 595.000000"
 preserveAspectRatio="xMidYMid meet">
<metadata>
Created by potrace 1.14, written by Peter Selinger 2001-2017
</metadata>
<g transform="translate(0.000000,595.000000) scale(0.100000,-0.100000)"
fill="#000000" stroke="none">
<path d="M2848 5535 c-2 -2 -41 -6 -88 -9 -113 -9 -134 -12 -210 -25 -36 -7
-76 -14 -90 -16 -72 -12 -374 -99 -395 -115 -5 -4 -28 -13 -50 -20 -75 -24
-332 -160 -445 -236 -247 -165 -451 -355 -621 -578 -38 -50 -73 -95 -77 -101
-62 -81 -192 -318 -250 -455 -65 -153 -137 -389 -156 -510 -3 -19 -7 -44 -10
-55 -2 -11 -7 -45 -11 -75 -4 -30 -10 -64 -12 -75 -9 -37 -11 -449 -3 -528 10
-91 18 -152 25 -187 3 -14 8 -41 11 -60 28 -175 143 -506 237 -682 19 -34 43
-80 54 -100 26 -48 164 -253 200 -297 73 -88 205 -232 266 -290 211 -201 489
-382 758 -495 101 -42 296 -109 350 -120 13 -3 78 -16 144 -30 349 -72 737
-67 1074 15 47 11 93 22 101 24 116 26 376 130 530 212 298 159 627 436 810
682 14 19 30 39 36 45 14 15 136 201 164 251 181 320 271 596 327 995 10 72
10 488 -1 565 -50 383 -158 709 -326 990 -23 39 -49 83 -59 98 -29 52 -165
233 -221 297 -425 484 -954 769 -1600 865 -93 14 -451 29 -462 20z"/>
</g>
</svg>
